<svg width="146" height="61" viewBox="0 0 146 61" fill="none" xmlns="http://www.w3.org/2000/svg">
<g clip-path="url(#clip0_1_83)" filter="url(#filter0_d_1_83)">
<path d="M26.174 9.86393C25.7076 9.47253 25.2413 9.47253 24.6972 9.94219C22.1325 10.8816 17.3137 14.1697 16.1479 13.9349C18.0909 11.2731 20.1894 8.68964 22.5988 6.34104C23.6091 4.93187 22.2878 4.61873 22.1325 3.83587C21.8215 2.81814 21.977 1.72213 22.2878 0.782691C22.7542 -0.00017523 21.8215 -0.156748 21.2775 0.156398C14.982 6.73247 9.61928 13.3086 4.64511 19.9629C3.8679 20.9806 4.02334 21.7635 4.56739 22.3898L7.20992 25.7561C7.75397 26.6956 8.6089 26.8521 9.697 26.1476L18.0132 20.5109C14.6712 25.9909 11.4846 32.1756 9.07523 39.6911C7.98713 42.9009 11.0183 47.7546 15.1375 52.8432C15.6038 53.3912 16.5364 52.8432 15.9147 51.7473C11.9509 44.31 15.2152 32.8019 27.9615 15.8137C28.5833 15.1092 28.8165 14.4045 28.3501 13.7L26.174 9.86393Z" fill="#1D1D1B"/>
<path d="M58.9719 19.6492L60.06 15.4218C60.2932 14.7955 60.7595 14.4824 61.3813 14.4041H65.1118H66.1999L66.8217 12.4469H65.1896L60.06 12.5252C58.9719 12.4469 58.117 12.8384 57.5729 14.091L54.7749 25.0511L53.6868 29.3568C53.376 30.2962 53.6091 31.0791 54.7749 31.3923C54.8526 31.3923 55.0081 31.4705 55.0858 31.4705H61.6144L62.1584 29.5134H57.1843C56.7957 29.2002 56.4848 29.2002 56.6402 28.2608L57.8061 23.6419C57.9615 23.0939 58.2724 22.7025 58.8164 22.7025H62.6248L63.1689 21.0584H59.2827C58.8164 20.7453 58.7387 20.2755 58.9719 19.6492Z" fill="#1D1D1B"/>
<path d="M66.666 28.2615C69.2308 18.1626 67.6763 24.1906 70.008 15.4225C70.2412 14.7962 70.7075 14.483 71.3293 14.4048H74.8267H76.0703L76.5366 12.8391L76.6921 12.3693H76.5366H74.8267H69.9303C68.8421 12.291 67.9095 12.6824 67.4432 13.935L65.1116 23.0946L63.5572 29.1227C63.2462 30.2186 63.4794 31.0015 64.9561 31.2364H65.0338H71.4847L72.0288 29.2792H67.0546C66.8214 29.2792 66.5105 29.201 66.666 28.2615Z" fill="#1D1D1B"/>
<path d="M41.6406 22.3114L37.9099 19.0234C37.1328 18.084 37.9099 14.5611 39.5422 14.4828H43.6613H45.0603L45.5267 12.6039H43.6613H38.5317C36.3555 12.9953 34.5679 17.5359 35.4229 19.7279L39.2312 23.1726C39.7753 23.7989 39.853 24.3469 39.853 24.9732L38.7649 28.731C38.5317 29.6704 37.9099 29.6704 37.1328 29.6704H32.0032L31.5368 31.471H39.0758C40.2416 31.3927 40.9411 30.6881 41.0966 29.5138L42.3401 24.7383C42.651 23.6423 42.2624 22.8594 41.6406 22.3114Z" fill="#1D1D1B"/>
<path d="M54.2306 21.7632L54.7746 19.4929L55.9404 14.7174C56.0958 13.4648 55.7072 12.7603 54.7746 12.6037C54.6192 12.5254 54.4637 12.5254 54.3083 12.5254H46.9247L43.7382 24.5032L41.8728 31.4708H43.7382H44.4377L49.0232 14.4825H52.0543C52.6761 14.6391 53.0648 14.9523 53.0648 15.5785L51.8212 20.7454C51.6657 21.6066 51.1217 22.1546 50.1891 22.4677L47.8574 22.9375L47.4687 24.7381L52.5207 23.7987C53.3756 23.5638 54.0751 22.9375 54.2306 21.7632Z" fill="#1D1D1B"/>
<path d="M81.1228 12.5254H78.0916L76.5372 18.2403L74.8273 24.5815L72.962 31.4708H74.8273H75.9932L76.5372 29.357L81.1228 12.5254Z" fill="#1D1D1B"/>
<path d="M108.014 12.5254H106.149H105.061L99.8533 31.4708H102.885L106.149 19.5712L108.014 12.5254Z" fill="#1D1D1B"/>
<path d="M121.304 23.6426C121.46 23.0946 121.771 22.7032 122.315 22.7032H126.123L126.667 21.0591H122.703C122.237 20.746 122.159 20.2763 122.392 19.65L123.558 15.4225C123.792 14.7962 124.257 14.483 124.879 14.4048H128.299H129.699L130.086 13.1522L130.319 12.3693H130.086H128.377H123.636C122.548 12.291 121.615 12.6824 121.149 13.935L118.35 24.8952L117.263 29.201C116.952 30.1404 117.185 30.9233 118.35 31.2364C118.428 31.2364 118.584 31.3147 118.661 31.3147H125.19L125.734 29.3575H120.682C120.294 29.0443 119.983 29.0443 120.138 28.1049L121.304 23.6426Z" fill="#1D1D1B"/>
<path d="M140.425 12.5254H131.486L130.01 17.8489L128.3 24.1901L126.357 31.3924H128.3H130.01H135.451C136.771 31.3142 137.549 30.6096 137.86 29.2787L141.902 14.1694C142.057 13.2299 141.513 12.6037 140.425 12.5254ZM138.637 15.9699L135.295 27.713C135.218 28.6524 134.596 29.2787 133.352 29.357H130.166C130.088 29.357 130.01 29.357 129.933 29.2787C129.622 29.1222 129.622 28.7307 129.777 28.3393L129.933 27.7912L133.896 14.2477H137.782C138.792 14.326 138.948 14.9523 138.637 15.9699Z" fill="#1D1D1B"/>
<path d="M108.635 28.0263L118.195 15.7354L118.894 14.7959C119.75 13.5434 119.439 12.6039 118.195 12.6039C118.195 12.6039 118.195 12.6039 118.117 12.6039H109.413L109.335 14.3262H114.698C115.397 14.3262 115.786 14.6393 115.32 15.2656L106.148 27.4L104.594 29.4355C103.972 30.3749 104.206 31.0796 105.294 31.5492H106.148H114.775L115.32 29.4355H108.791C108.169 29.279 108.091 28.4961 108.635 28.0263Z" fill="#1D1D1B"/>
<path d="M86.4076 12.6037L76.5369 31.2359L76.3815 31.549H76.5369H78.7131L86.4853 16.6746L87.1847 16.7528L87.5734 20.902C87.8842 21.9197 87.1847 21.8415 86.9516 21.8415H84.7754L84.3868 23.4072L86.9516 23.4855C87.4179 23.5638 87.6511 23.7987 87.5734 24.2683L88.0397 31.3142H90.6822L89.5941 12.5254L86.4076 12.6037Z" fill="#1D1D1B"/>
<path d="M94.7238 28.0261L98.9205 12.5254H95.8898L91.3818 29.2004C91.3041 30.1399 91.6927 31.1575 92.936 31.4708H98.9205L99.5424 29.4353L95.268 29.357C94.7238 29.2787 94.4906 28.809 94.7238 28.0261Z" fill="#1D1D1B"/>
</g>
<defs>
<filter id="filter0_d_1_83" x="0" y="0" width="146" height="61" filterUnits="userSpaceOnUse" color-interpolation-filters="sRGB">
<feFlood flood-opacity="0" result="BackgroundImageFix"/>
<feColorMatrix in="SourceAlpha" type="matrix" values="0 0 0 0 0 0 0 0 0 0 0 0 0 0 0 0 0 0 127 0" result="hardAlpha"/>
<feOffset dy="4"/>
<feGaussianBlur stdDeviation="2"/>
<feComposite in2="hardAlpha" operator="out"/>
<feColorMatrix type="matrix" values="0 0 0 0 0 0 0 0 0 0 0 0 0 0 0 0 0 0 0.25 0"/>
<feBlend mode="normal" in2="BackgroundImageFix" result="effect1_dropShadow_1_83"/>
<feBlend mode="normal" in="SourceGraphic" in2="effect1_dropShadow_1_83" result="shape"/>
</filter>
<clipPath id="clip0_1_83">
<rect width="138" height="53" fill="white" transform="translate(4)"/>
</clipPath>
</defs>
</svg>
